<?xml version="1.0" encoding="utf-8"?>
<svg width="150" height="150" viewBox="0 0 150 150" fill="none" stroke="none" version="1.1" xmlns:xlink="http://www.w3.org/1999/xlink" xmlns="http://www.w3.org/2000/svg">
  <defs>
    <path id="path_1" d="M125 0C138.809 0 150 11.191 150 25L150 125C150 138.809 138.809 150 125 150L25 150C11.191 150 0 138.809 0 125L0 25C0 11.191 11.191 0 25 0L125 0Z" />
    <rect id="rect_2" x="0" y="0" width="150" height="150" />
    <clipPath id="clip_path_3">
      <use xlink:href="#rect_2" />
    </clipPath>
    <rect id="rect_4" x="0" y="0" width="53" height="150" />
    <clipPath id="clip_path_5">
      <use xlink:href="#rect_4" />
    </clipPath>
  </defs>
  <g id="Frame" opacity="1" clip-path="url(#clip_path_3)">
    <g style="fill:#F88222;fill-rule:evenodd;mix-blend-mode:normal;">
      <use xlink:href="#path_1" />
      <g>
        <path id="Vector" d="M0 1.90039L0 113.1C0 114.149 0.850834 115 1.90039 115L77.0996 115C78.1492 115 79 114.149 79 113.1L79 1.90039C79 0.850834 78.1492 0 77.0996 0L1.90039 0C0.850834 0 0 0.850834 0 1.90039Z" style="fill:none;stroke-width:5;stroke:#000000;mix-blend-mode:normal;" transform="translate(36 18)" />
        <g clip-path="url(#clip_path_5)" style="mix-blend-mode:normal;" transform="translate(49 60.6)">
          <path d="M1.44141 23.688L1.44141 11.2427L3.74414 11.2427Q4.08984 11.2427 4.32422 11.4009Q4.55859 11.5532 4.6582 11.8696L4.85742 12.5376Q5.17383 12.2153 5.50781 11.9458Q5.8418 11.6763 6.22852 11.4771Q6.62109 11.2778 7.07227 11.1665Q7.52344 11.0493 8.0625 11.0493Q9.19336 11.0493 9.93164 11.6353Q10.6699 12.2153 11.0508 13.188Q11.3613 12.6138 11.8125 12.2036Q12.2637 11.7935 12.7852 11.5415Q13.3066 11.2896 13.8867 11.1724Q14.4727 11.0493 15.0469 11.0493Q16.1133 11.0493 16.9395 11.3716Q17.7715 11.688 18.3281 12.2974Q18.8906 12.9009 19.1777 13.7857Q19.4648 14.6646 19.4648 15.7778L19.4648 23.688L15.7441 23.688L15.7441 15.7778Q15.7441 13.8501 14.0859 13.8501Q13.3301 13.8501 12.832 14.3482Q12.334 14.8462 12.334 15.7778L12.334 23.688L8.61328 23.688L8.61328 15.7778Q8.61328 14.7114 8.19141 14.2837Q7.77539 13.8501 6.96094 13.8501Q6.45703 13.8501 6.00586 14.0786Q5.55469 14.3013 5.16211 14.688L5.16211 23.688L1.44141 23.688ZM31.082 14.1958Q30.912 14.4009 30.7538 14.5239Q30.6015 14.6411 30.3144 14.6411Q30.0331 14.6411 29.8105 14.5122Q29.5937 14.3775 29.3183 14.2134Q29.0429 14.0493 28.6679 13.9204Q28.2988 13.7857 27.7421 13.7857Q27.0624 13.7857 26.5644 14.0376Q26.0663 14.2896 25.7382 14.7583Q25.416 15.2271 25.2577 15.9067Q25.1054 16.5864 25.1054 17.436Q25.1054 19.2232 25.791 20.1841Q26.4824 21.145 27.6952 21.145Q28.3456 21.145 28.7206 20.9868Q29.1015 20.8228 29.3652 20.6235Q29.6288 20.4243 29.8515 20.2603Q30.0742 20.0903 30.4081 20.0903Q30.8535 20.0903 31.082 20.4126L32.1601 21.7427Q31.5859 22.4048 30.9472 22.8208Q30.3144 23.231 29.6464 23.4653Q28.9785 23.6997 28.3046 23.7876Q27.6367 23.8814 26.998 23.8814Q25.8613 23.8814 24.8183 23.4478Q23.7812 23.0142 22.996 22.1939Q22.2109 21.3735 21.748 20.1724Q21.2851 18.9712 21.2851 17.436Q21.2851 16.0942 21.6894 14.9224Q22.0937 13.7505 22.8788 12.895Q23.664 12.0337 24.8183 11.5415Q25.9785 11.0493 27.5019 11.0493Q28.9667 11.0493 30.0683 11.5181Q31.1757 11.9868 32.0663 12.8892L31.082 14.1958ZM32.328 11.2427L35.3046 11.2427Q35.6971 11.2427 35.9842 11.4243Q36.2772 11.606 36.3358 11.8931L37.5839 17.4712Q37.7303 18.1099 37.8475 18.7075Q37.9706 19.3052 38.0643 19.897Q38.2342 19.3052 38.4159 18.7134Q38.6034 18.1216 38.785 17.4712L40.3436 11.8814Q40.4139 11.606 40.6893 11.4185Q40.9706 11.231 41.328 11.231L42.9862 11.231Q43.3788 11.231 43.66 11.4185Q43.9413 11.606 44.0175 11.8814L45.5057 17.4712Q45.6698 18.1099 45.8456 18.7075Q46.0214 19.3052 46.1737 19.9204Q46.2733 19.3228 46.4081 18.731Q46.5487 18.1333 46.7069 17.4712L48.0253 11.8931Q48.0839 11.606 48.3651 11.4243Q48.6464 11.2427 49.0096 11.2427L51.8397 11.2427L47.9784 23.688L44.955 23.688Q44.7147 23.688 44.5448 23.5474Q44.3749 23.4009 44.2811 23.0669L42.5057 16.8618Q42.3827 16.44 42.2714 16.0357Q42.1659 15.6255 42.0839 15.2153Q42.0018 15.6372 41.8964 16.0532Q41.7967 16.4634 41.662 16.8853L39.8632 23.0669Q39.6815 23.688 39.0721 23.688L36.1893 23.688L32.328 11.2427Z" transform="translate(0.58 0)" style="fill:#000000;" />
        </g>
      </g>
      <path d="M150 25C150 11.191 138.809 0 125 0L25 0C11.191 0 0 11.191 0 25L0 125C0 138.809 11.191 150 25 150L125 150C138.809 150 150 138.809 150 125L150 25ZM25 5L125 5Q133.286 5 139.143 10.8572Q145 16.7144 145 25L145 125Q145 133.286 139.143 139.143Q133.286 145 125 145L25 145Q16.7143 145 10.8571 139.143Q5 133.286 5 125L5 25Q4.99994 16.7143 10.8571 10.8572Q16.7142 4.99998 25 5Z" fill-rule="evenodd" style="fill:#000000;fill-rule:evenodd;" />
    </g>
  </g>
</svg>